<svg width="1200" height="420" viewBox="0 0 1200 420" xmlns="http://www.w3.org/2000/svg" fill="none">
  <rect width="1200" height="420" rx="32" fill="#F8FAFC"/>
  <g transform="translate(72 98)">
    <svg width="224" height="224" viewBox="0 0 96 96" xmlns="http://www.w3.org/2000/svg" fill="none" aria-hidden="true">
      <rect x="2" y="2" width="92" height="92" rx="22" fill="#FFFFFF" stroke="#3C499D" stroke-width="4"/>
      
        <rect x="23" y="26" width="50" height="46" rx="9" fill="#3C499D"/>
        <rect x="23" y="26" width="50" height="12" rx="8" fill="#10B981"/>
        <path d="M48 61c4 0 7-2 7-5 0-2-2-4-5-4h-4c-3 0-5-2-5-4 0-3 3-5 7-5" stroke="#303a7e" stroke-width="3" fill="none" stroke-linecap="round"/>
        <path d="M48 45v20" stroke="#303a7e" stroke-width="3" stroke-linecap="round"/>
      
    </svg>
  </g>
  <text x="356" y="206" font-family="Inter,Segoe UI,Arial" font-size="116" font-weight="800" fill="#0F172A">Dinaria</text>
  <text x="360" y="264" font-family="Inter,Segoe UI,Arial" font-size="34" font-weight="500" fill="#475569">Finanzas claras para todos</text>
  <text x="360" y="314" font-family="Inter,Segoe UI,Arial" font-size="24" fill="#64748B">C37 | Calendario $ | Outline | score 7.3</text>
</svg>