
<svg width="1280" height="430" viewBox="0 0 1280 430" xmlns="http://www.w3.org/2000/svg" fill="none">
  <rect width="1280" height="430" rx="28" fill="#F8FAFC"/>
  <g transform="translate(78 155)">
<svg width="120" height="120" viewBox="0 0 120 120" xmlns="http://www.w3.org/2000/svg" fill="none">
  <rect x="8" y="8" width="104" height="104" rx="18" fill="#EAF2FF"/>
  <path d="M 28.80 49.26 A 33 33 0 0 1 91.38 70.20" stroke="#1D4ED8" stroke-width="17" stroke-linecap="round"/>
  <path d="M 87.99 77.49 A 33 33 0 0 1 28.62 49.80" stroke="#1E3A8A" stroke-width="17" stroke-linecap="round"/>
  <path d="M 91.38 70.20 L 82.15 72.40 L 85.21 62.99 Z" fill="#1D4ED8"/>
  <path d="M 28.62 49.80 L 37.85 47.60 L 34.79 57.01 Z" fill="#1E3A8A"/>
  <path d="
    M 40 30
    H 52
    C 69 30, 81 41, 81 60
    C 81 79, 69 90, 52 90
    H 40
    V 74
    H 50
    C 60 74, 66 68, 66 60
    C 66 52, 60 46, 50 46
    H 40
    Z" fill="#FFFFFF"/>
</svg></g>
  <text x="245" y="246" font-family="Poppins, Montserrat, Segoe UI, Arial, sans-serif" font-size="112" font-weight="700" fill="#1D4ED8">Dinaria</text>
  <text x="248" y="292" font-family="Poppins, Montserrat, Segoe UI, Arial, sans-serif" font-size="30" font-weight="500" fill="#475569">Finanzas claras para todos</text>
  <text x="248" y="334" font-family="Poppins, Montserrat, Segoe UI, Arial, sans-serif" font-size="24" font-weight="600" fill="#64748B">B07 - Royal Finance</text>
</svg>