<svg width="1200" height="840" viewBox="0 0 900 700" xmlns="http://www.w3.org/2000/svg" fill="none">
  <defs>
    <mask id="d-cutout">
      <rect width="100%" height="100%" fill="#FFFFFF"/>
      <path d="M300 298 L520 298 C602 298 664 356 664 440 C664 524 602 582 520 582 L262 582 L280 522 L496 522 C548 522 586 488 596 440 C586 392 548 358 496 358 L330 358 Z" fill="#000000"/>
    </mask>
  </defs>
  <g mask="url(#d-cutout)">
    <path d="M150 120 L560 120 L570 102 L735 235 L545 360 L560 285 L305 285 L252 450 L70 575 L138 165 Z" fill="#16161A"/>
    <path d="M650 300 L790 205 Q850 245 866 337 Q883 478 809 586 Q728 703 586 726 Q470 744 295 735 L235 735 L220 763 L65 655 L260 525 L245 585 L420 585 Q520 585 595 560 Q680 532 705 446 Q725 380 690 330 Z" fill="#16161A"/>
  </g>
</svg>
