
<svg width="1324" height="1039" viewBox="0 0 1324 1039" xmlns="http://www.w3.org/2000/svg" fill="none">
  <rect width="1324" height="1039" fill="#EDF2FF"/>
  <text x="28" y="58" font-family="Avenir Next, Sora, Poppins, Segoe UI, Arial, sans-serif" font-size="42" font-weight="700" fill="#0F172A">Dinaria · Ronda nueva (6 opciones pulidas)</text>
  <text x="28" y="94" font-family="Avenir Next, Sora, Poppins, Segoe UI, Arial, sans-serif" font-size="22" fill="#475569">Concepto: D con flechas de flujo · objetivo: serio, limpio, memorable</text>
  
  <g transform="translate(28 160)">
    <rect width="620" height="265" rx="22" fill="#FFFFFF" stroke="#E2E8F0"/>
    <g transform="translate(30 72)"><svg width="120" height="120" viewBox="0 0 120 120" xmlns="http://www.w3.org/2000/svg" fill="none">
  <defs>
    <linearGradient id="g-V1" x1="18" y1="20" x2="104" y2="104" gradientUnits="userSpaceOnUse">
      <stop offset="0%" stop-color="#1E40AF"/>
      <stop offset="100%" stop-color="#1D4ED8"/>
    </linearGradient>
  </defs>

  <!-- top arrow arc -->
  <path d="M28 28 H64 C83 28 97 40 97 58" stroke="url(#g-V1)" stroke-width="18" stroke-linecap="round" stroke-linejoin="round" fill="none"/>
  <path d="M95 46 L108 58 L95 70" stroke="url(#g-V1)" stroke-width="10" stroke-linecap="round" stroke-linejoin="round" fill="none"/>

  <!-- bottom arrow arc -->
  <path d="M92 92 H56 C37 92 23 80 23 62" stroke="url(#g-V1)" stroke-width="18" stroke-linecap="round" stroke-linejoin="round" fill="none"/>
  <path d="M25 74 L12 62 L25 50" stroke="url(#g-V1)" stroke-width="10" stroke-linecap="round" stroke-linejoin="round" fill="none"/>

  <!-- white D counter-shape -->
  <path d="M40 38 H60 C74 38 84 47 84 60 C84 73 74 82 60 82 H40 L52 70 H60 C66 70 70 66 70 60 C70 54 66 50 60 50 H52 Z" fill="#FFFFFF"/>
  </svg></g>
    <text x="196" y="130" font-family="Avenir Next, Sora, Poppins, Segoe UI, Arial, sans-serif" font-size="66" font-weight="700" fill="#162351">Dinaria</text>
    <text x="198" y="170" font-family="Avenir Next, Sora, Poppins, Segoe UI, Arial, sans-serif" font-size="25" fill="#4B5C7A">V1 · Core Loop</text>
    <text x="198" y="206" font-family="Avenir Next, Sora, Poppins, Segoe UI, Arial, sans-serif" font-size="18" fill="#64748B">#1D4ED8 · #1E40AF</text>
  </g>
  <g transform="translate(676 160)">
    <rect width="620" height="265" rx="22" fill="#FFFFFF" stroke="#E2E8F0"/>
    <g transform="translate(30 72)"><svg width="120" height="120" viewBox="0 0 120 120" xmlns="http://www.w3.org/2000/svg" fill="none">
  <defs>
    <linearGradient id="g-V2" x1="18" y1="20" x2="104" y2="104" gradientUnits="userSpaceOnUse">
      <stop offset="0%" stop-color="#60A5FA"/>
      <stop offset="100%" stop-color="#2563EB"/>
    </linearGradient>
  </defs>

  <!-- top arrow arc -->
  <path d="M28 28 H64 C83 28 97 40 97 58" stroke="url(#g-V2)" stroke-width="17" stroke-linecap="round" stroke-linejoin="round" fill="none"/>
  <path d="M95 46 L108 58 L95 70" stroke="url(#g-V2)" stroke-width="10" stroke-linecap="round" stroke-linejoin="round" fill="none"/>

  <!-- bottom arrow arc -->
  <path d="M92 92 H56 C37 92 23 80 23 62" stroke="url(#g-V2)" stroke-width="17" stroke-linecap="round" stroke-linejoin="round" fill="none"/>
  <path d="M25 74 L12 62 L25 50" stroke="url(#g-V2)" stroke-width="10" stroke-linecap="round" stroke-linejoin="round" fill="none"/>

  <!-- white D counter-shape -->
  <path d="M40 38 H60 C74 38 84 47 84 60 C84 73 74 82 60 82 H40 L52 70 H60 C66 70 70 66 70 60 C70 54 66 50 60 50 H52 Z" fill="#FFFFFF"/>
  </svg></g>
    <text x="196" y="130" font-family="Avenir Next, Sora, Poppins, Segoe UI, Arial, sans-serif" font-size="66" font-weight="700" fill="#1E3A8A">Dinaria</text>
    <text x="198" y="170" font-family="Avenir Next, Sora, Poppins, Segoe UI, Arial, sans-serif" font-size="25" fill="#4B5C7A">V2 · Calm Flow</text>
    <text x="198" y="206" font-family="Avenir Next, Sora, Poppins, Segoe UI, Arial, sans-serif" font-size="18" fill="#64748B">#2563EB · #60A5FA</text>
  </g>
  <g transform="translate(28 453)">
    <rect width="620" height="265" rx="22" fill="#FFFFFF" stroke="#E2E8F0"/>
    <g transform="translate(30 72)"><svg width="120" height="120" viewBox="0 0 120 120" xmlns="http://www.w3.org/2000/svg" fill="none">
  <defs>
    <linearGradient id="g-V3" x1="18" y1="20" x2="104" y2="104" gradientUnits="userSpaceOnUse">
      <stop offset="0%" stop-color="#1E40AF"/>
      <stop offset="100%" stop-color="#1E40AF"/>
    </linearGradient>
  </defs>

  <!-- top arrow arc -->
  <path d="M28 28 H64 C83 28 97 40 97 58" stroke="#1E40AF" stroke-width="18" stroke-linecap="round" stroke-linejoin="round" fill="none"/>
  <path d="M95 46 L108 58 L95 70" stroke="#1E40AF" stroke-width="10" stroke-linecap="round" stroke-linejoin="round" fill="none"/>

  <!-- bottom arrow arc -->
  <path d="M92 92 H56 C37 92 23 80 23 62" stroke="#1E40AF" stroke-width="18" stroke-linecap="round" stroke-linejoin="round" fill="none"/>
  <path d="M25 74 L12 62 L25 50" stroke="#1E40AF" stroke-width="10" stroke-linecap="round" stroke-linejoin="round" fill="none"/>

  <!-- white D counter-shape -->
  <path d="M40 38 H60 C74 38 84 47 84 60 C84 73 74 82 60 82 H40 L52 70 H60 C66 70 70 66 70 60 C70 54 66 50 60 50 H52 Z" fill="#FFFFFF"/>
  </svg></g>
    <text x="196" y="130" font-family="Avenir Next, Sora, Poppins, Segoe UI, Arial, sans-serif" font-size="66" font-weight="700" fill="#1E3A8A">Dinaria</text>
    <text x="198" y="170" font-family="Avenir Next, Sora, Poppins, Segoe UI, Arial, sans-serif" font-size="25" fill="#4B5C7A">V3 · Solid Trust</text>
    <text x="198" y="206" font-family="Avenir Next, Sora, Poppins, Segoe UI, Arial, sans-serif" font-size="18" fill="#64748B">#1E40AF</text>
  </g>
  <g transform="translate(676 453)">
    <rect width="620" height="265" rx="22" fill="#FFFFFF" stroke="#E2E8F0"/>
    <g transform="translate(30 72)"><svg width="120" height="120" viewBox="0 0 120 120" xmlns="http://www.w3.org/2000/svg" fill="none">
  <defs>
    <linearGradient id="g-V4" x1="18" y1="20" x2="104" y2="104" gradientUnits="userSpaceOnUse">
      <stop offset="0%" stop-color="#38BDF8"/>
      <stop offset="100%" stop-color="#2563EB"/>
    </linearGradient>
  </defs>

  <!-- top arrow arc -->
  <path d="M28 28 H64 C83 28 97 40 97 58" stroke="url(#g-V4)" stroke-width="16" stroke-linecap="round" stroke-linejoin="round" fill="none"/>
  <path d="M95 46 L108 58 L95 70" stroke="url(#g-V4)" stroke-width="9" stroke-linecap="round" stroke-linejoin="round" fill="none"/>

  <!-- bottom arrow arc -->
  <path d="M92 92 H56 C37 92 23 80 23 62" stroke="url(#g-V4)" stroke-width="16" stroke-linecap="round" stroke-linejoin="round" fill="none"/>
  <path d="M25 74 L12 62 L25 50" stroke="url(#g-V4)" stroke-width="9" stroke-linecap="round" stroke-linejoin="round" fill="none"/>

  <!-- white D counter-shape -->
  <path d="M40 38 H60 C74 38 84 47 84 60 C84 73 74 82 60 82 H40 L52 70 H60 C66 70 70 66 70 60 C70 54 66 50 60 50 H52 Z" fill="#FFFFFF"/>
  </svg></g>
    <text x="196" y="130" font-family="Avenir Next, Sora, Poppins, Segoe UI, Arial, sans-serif" font-size="66" font-weight="700" fill="#1E3A8A">Dinaria</text>
    <text x="198" y="170" font-family="Avenir Next, Sora, Poppins, Segoe UI, Arial, sans-serif" font-size="25" fill="#4B5C7A">V4 · Friendly Blue</text>
    <text x="198" y="206" font-family="Avenir Next, Sora, Poppins, Segoe UI, Arial, sans-serif" font-size="18" fill="#64748B">#2563EB · #38BDF8</text>
  </g>
  <g transform="translate(28 746)">
    <rect width="620" height="265" rx="22" fill="#FFFFFF" stroke="#E2E8F0"/>
    <g transform="translate(30 72)"><svg width="120" height="120" viewBox="0 0 120 120" xmlns="http://www.w3.org/2000/svg" fill="none">
  <defs>
    <linearGradient id="g-V5" x1="18" y1="20" x2="104" y2="104" gradientUnits="userSpaceOnUse">
      <stop offset="0%" stop-color="#2563EB"/>
      <stop offset="100%" stop-color="#1E3A8A"/>
    </linearGradient>
  </defs>

  <!-- top arrow arc -->
  <path d="M28 28 H64 C83 28 97 40 97 58" stroke="url(#g-V5)" stroke-width="18" stroke-linecap="round" stroke-linejoin="round" fill="none"/>
  <path d="M95 46 L108 58 L95 70" stroke="url(#g-V5)" stroke-width="10" stroke-linecap="round" stroke-linejoin="round" fill="none"/>

  <!-- bottom arrow arc -->
  <path d="M92 92 H56 C37 92 23 80 23 62" stroke="url(#g-V5)" stroke-width="18" stroke-linecap="round" stroke-linejoin="round" fill="none"/>
  <path d="M25 74 L12 62 L25 50" stroke="url(#g-V5)" stroke-width="10" stroke-linecap="round" stroke-linejoin="round" fill="none"/>

  <!-- white D counter-shape -->
  <path d="M40 38 H60 C74 38 84 47 84 60 C84 73 74 82 60 82 H40 L52 70 H60 C66 70 70 66 70 60 C70 54 66 50 60 50 H52 Z" fill="#FFFFFF"/>
  </svg></g>
    <text x="196" y="130" font-family="Avenir Next, Sora, Poppins, Segoe UI, Arial, sans-serif" font-size="66" font-weight="700" fill="#0F1E4D">Dinaria</text>
    <text x="198" y="170" font-family="Avenir Next, Sora, Poppins, Segoe UI, Arial, sans-serif" font-size="25" fill="#4B5C7A">V5 · Premium Navy</text>
    <text x="198" y="206" font-family="Avenir Next, Sora, Poppins, Segoe UI, Arial, sans-serif" font-size="18" fill="#64748B">#1E3A8A · #2563EB</text>
  </g>
  <g transform="translate(676 746)">
    <rect width="620" height="265" rx="22" fill="#FFFFFF" stroke="#E2E8F0"/>
    <g transform="translate(30 72)"><svg width="120" height="120" viewBox="0 0 120 120" xmlns="http://www.w3.org/2000/svg" fill="none">
  <defs>
    <linearGradient id="g-V6" x1="18" y1="20" x2="104" y2="104" gradientUnits="userSpaceOnUse">
      <stop offset="0%" stop-color="#3B82F6"/>
      <stop offset="100%" stop-color="#1D4ED8"/>
    </linearGradient>
  </defs>

  <!-- top arrow arc -->
  <path d="M28 28 H64 C83 28 97 40 97 58" stroke="#1D4ED8" stroke-width="17" stroke-linecap="round" stroke-linejoin="round" fill="none"/>
  <path d="M95 46 L108 58 L95 70" stroke="#1D4ED8" stroke-width="10" stroke-linecap="round" stroke-linejoin="round" fill="none"/>

  <!-- bottom arrow arc -->
  <path d="M92 92 H56 C37 92 23 80 23 62" stroke="#1D4ED8" stroke-width="17" stroke-linecap="round" stroke-linejoin="round" fill="none"/>
  <path d="M25 74 L12 62 L25 50" stroke="#1D4ED8" stroke-width="10" stroke-linecap="round" stroke-linejoin="round" fill="none"/>

  <!-- white D counter-shape -->
  <path d="M40 38 H60 C74 38 84 47 84 60 C84 73 74 82 60 82 H40 L52 70 H60 C66 70 70 66 70 60 C70 54 66 50 60 50 H52 Z" fill="#FFFFFF"/>
  </svg></g>
    <text x="196" y="130" font-family="Avenir Next, Sora, Poppins, Segoe UI, Arial, sans-serif" font-size="66" font-weight="700" fill="#1D3B86">Dinaria</text>
    <text x="198" y="170" font-family="Avenir Next, Sora, Poppins, Segoe UI, Arial, sans-serif" font-size="25" fill="#4B5C7A">V6 · Flat Modern</text>
    <text x="198" y="206" font-family="Avenir Next, Sora, Poppins, Segoe UI, Arial, sans-serif" font-size="18" fill="#64748B">#1D4ED8 · #3B82F6</text>
  </g>
</svg>