<svg width="179" height="176" viewBox="0 0 179 176" fill="none" xmlns="http://www.w3.org/2000/svg">
<path d="M171.934 54.8711C176.501 64.9647 178.877 76.1366 178.84 87.4736V87.5049C178.893 106.537 172.124 124.726 160.167 138.09L158.165 140.227C148.055 150.625 136.299 156.812 122.616 158.598C118.001 159.2 113.544 159.105 108.328 159.104L39.7559 159.092L39.7744 164.188C39.7907 168.127 39.8715 170.736 39.2617 172.786C39.0055 173.645 38.6816 174.167 38.3232 174.522C37.9713 174.87 37.317 175.322 36 175.658C35.5907 175.761 34.5341 175.724 32.2998 174.312C31.2796 173.668 30.2287 172.872 29.1006 171.983C28.0576 171.161 26.7919 170.123 25.6904 169.309L8.32715 156.491L8.32031 156.484L4.80566 153.958C3.78277 153.207 2.89247 152.49 2.0752 151.654C0.69735 150.245 0.0240209 148.935 0.00585938 147.176V147.003L0.0126953 146.41C0.0489079 145.744 0.177513 144.881 0.426758 144.025C0.585877 143.479 0.762473 143.029 0.932617 142.704C1.09565 142.394 1.19031 142.312 1.15137 142.351L3.98438 139.887C7.16183 137.245 11.193 134.189 14.8496 131.505C17.2543 129.74 19.4512 128.169 21.0391 127.045C21.8304 126.485 22.4753 126.032 22.917 125.723C23.1359 125.57 23.3093 125.451 23.4238 125.371C23.4801 125.332 23.5253 125.298 23.5537 125.278C23.5652 125.271 23.5814 125.261 23.584 125.26L23.5967 125.253L23.8311 125.08L23.8438 125.068C23.8558 125.059 23.8772 125.042 23.8994 125.024C23.9472 124.987 24.0198 124.928 24.1094 124.858C24.2943 124.715 24.5679 124.509 24.9004 124.253C25.571 123.736 26.5021 123.016 27.5439 122.227C29.6577 120.625 32.1365 118.785 33.8379 117.631C34.9042 116.909 36.495 116.856 37.9277 117.989L38.5264 118.551C39.0554 119.141 39.4888 120.103 39.6943 121.844C39.915 123.717 39.8099 125.623 39.7871 128.138L39.7441 133.216L44.8154 133.259C49.7106 133.302 102.347 133.311 107.204 133.283L107.198 133.277C117.632 133.252 127.501 133.693 138.33 125.537C155.933 112.277 161.124 86.1078 151.396 66.0947C156.699 62.0217 162.144 58.1561 167.715 54.1299C168.737 53.391 169.686 52.6811 170.581 52.0488L171.934 54.8711ZM1.15137 142.351L1.13672 142.364C1.14269 142.359 1.14775 142.354 1.15137 142.351ZM132.425 0C132.572 0.0288867 132.849 0.103014 133.277 0.27832C133.966 0.559926 134.793 1.00634 135.742 1.60645C137.747 2.87451 139.485 4.27462 141.333 5.6084C146.254 9.17008 151.143 12.7916 155.991 16.4746L156.016 16.499C159.618 19.1955 162.772 21.1989 165.553 23.6338C166.913 24.9623 167.812 26.8225 167.895 28.5996C168.011 31.1303 167.293 32.5221 166.214 33.7393C164.78 35.3552 162.971 36.4561 160.043 38.625L147.924 47.5391L147.911 47.5449L138.961 54.1611L135.434 56.6992C134.46 57.3482 133.642 57.8009 132.839 58.0586C132.228 58.2542 131.855 58.2446 131.566 58.1758C131.262 58.1031 130.634 57.8627 129.683 56.9473C129.247 56.5278 128.759 55.6527 128.49 53.7412C128.213 51.7635 128.278 49.7584 128.225 47.2178L128.12 42.2393L123.135 42.251H120.757C119.239 42.2542 117.062 42.264 114.45 42.2695C109.226 42.2806 102.239 42.2919 95.1895 42.3066C81.0809 42.3362 66.7255 42.3694 65.7061 42.3691C62.3005 42.3738 58.8948 42.3657 55.4893 42.3506L45.2725 42.2764H45.2227C42.5886 42.2758 39.6688 42.3719 36.7852 43.2646C33.743 44.2066 31.0325 45.9297 28.5322 48.7129C26.0212 51.4974 24.2891 54.9412 23.4668 58.6455L23.4609 58.6826C22.9702 60.9721 22.8491 64.4127 22.8125 67.3242C22.775 70.3181 22.827 73.604 22.8242 75.3916L22.8311 101.015L22.8369 101.063C22.8474 102.135 22.8442 103.123 22.8369 104.091C15.4821 109.701 7.83733 115.15 0.25293 120.744C0.204218 120.658 0.173857 120.593 0.166992 120.553C-0.0650341 119.188 0.0415619 116.924 0.03125 114.351L0 103.343V65.9033C0.00242621 51.6065 3.82099 40.0046 12.75 30.1445L12.7559 30.1318C19.7194 22.4103 28.8214 17.7355 38.4277 16.7773H38.4463C42.8922 16.3211 48.2805 16.5116 53.4385 16.5176L128.299 16.5049L128.243 11.3721C128.196 7.20798 128.263 4.3636 128.997 2.40332C129.304 1.58493 129.665 1.13532 130.047 0.839844C130.411 0.558985 131.097 0.194453 132.425 0Z" fill="#3C499D"/>
</svg>
