
<svg width="1280" height="420" viewBox="0 0 1280 420" xmlns="http://www.w3.org/2000/svg" fill="none">
  <rect width="1280" height="420" rx="30" fill="#F8FAFC"/>
  <g transform="translate(88 150)"><svg width="120" height="120" viewBox="0 0 120 120" xmlns="http://www.w3.org/2000/svg" fill="none">
      <path d="M35 18h52l16 16-12 12-10-10H46l-8 39 11 11-16 16-20-20z" fill="#1E40AF"/>
      <path d="M30 101h54c18 0 30-11 34-27 3-11 1-23-7-32L99 54c2 3 2 8 1 13-2 8-8 15-17 15H50l-10-10-16 16z" fill="#3B82F6"/>
      <path d="M45 42h28c10 0 16 6 16 15 0 4-2 8-4 11L61 92H41l15-15h8l12-12c2-2 3-3 3-5 0-4-3-7-9-7H45z" fill="#FFFFFF"/>
    </svg></g>
  <text x="260" y="248" font-family="Poppins, Montserrat, Segoe UI, Arial, sans-serif" font-size="110" font-weight="700" fill="#1E3A8A">Dinaria</text>
  <text x="262" y="294" font-family="Poppins, Montserrat, Segoe UI, Arial, sans-serif" font-size="30" font-weight="500" fill="#475569">Finanzas claras para todos</text>
  <text x="262" y="336" font-family="Poppins, Montserrat, Segoe UI, Arial, sans-serif" font-size="24" font-weight="600" fill="#64748B">P2 - Flat Precision</text>
</svg>