
<svg width="1244" height="1548" viewBox="0 0 1244 1548" xmlns="http://www.w3.org/2000/svg" fill="none">
  <rect width="1244" height="1548" fill="#EEF2FF"/>
  <text x="28" y="56" font-family="Poppins, Montserrat, Segoe UI, Arial, sans-serif" font-size="42" font-weight="700" fill="#0F172A">Dinaria - 10 propuestas (concepto flechas + D)</text>
  <text x="28" y="92" font-family="Poppins, Montserrat, Segoe UI, Arial, sans-serif" font-size="22" fill="#475569">Direccion: amigable + serio + reproducible | Paleta azul</text>
  
  <g transform="translate(28 158)">
    <rect width="580" height="250" rx="20" fill="#FFFFFF" stroke="#E2E8F0"/>
    <g transform="translate(24 58)">
<svg width="120" height="120" viewBox="0 0 120 120" xmlns="http://www.w3.org/2000/svg" fill="none">
  <rect x="8" y="8" width="104" height="104" rx="28" fill="#EAF2FF"/>
  <path d="M 30.09 46.05 A 33 33 0 0 1 91.38 70.20" stroke="#1D4ED8" stroke-width="17" stroke-linecap="round"/>
  <path d="M 87.99 77.49 A 33 33 0 0 1 28.62 49.80" stroke="#2563EB" stroke-width="17" stroke-linecap="round"/>
  <path d="M 91.38 70.20 L 82.15 72.40 L 85.21 62.99 Z" fill="#1D4ED8"/>
  <path d="M 28.62 49.80 L 37.85 47.60 L 34.79 57.01 Z" fill="#2563EB"/>
  <path d="
    M 40 30
    H 52
    C 69 30, 81 41, 81 60
    C 81 79, 69 90, 52 90
    H 40
    V 74
    H 50
    C 60 74, 66 68, 66 60
    C 66 52, 60 46, 50 46
    H 40
    Z" fill="#FFFFFF"/>
</svg></g>
    <text x="170" y="108" font-family="Poppins, Montserrat, Segoe UI, Arial, sans-serif" font-size="58" font-weight="700" fill="#1D4ED8">Dinaria</text>
    <text x="170" y="144" font-family="Poppins, Montserrat, Segoe UI, Arial, sans-serif" font-size="20" font-weight="500" fill="#475569">B01 - Ocean Trust</text>
    <text x="170" y="178" font-family="Poppins, Montserrat, Segoe UI, Arial, sans-serif" font-size="18" fill="#64748B">Primary #1D4ED8 | Accent #2563EB</text>
  </g>
  <g transform="translate(636 158)">
    <rect width="580" height="250" rx="20" fill="#FFFFFF" stroke="#E2E8F0"/>
    <g transform="translate(24 58)">
<svg width="120" height="120" viewBox="0 0 120 120" xmlns="http://www.w3.org/2000/svg" fill="none">
  <circle cx="60" cy="60" r="54" fill="#EAF2FF"/>
  <path d="M 28.48 47.26 A 34 34 0 0 1 91.95 71.63" stroke="#1E40AF" stroke-width="18" stroke-linecap="round"/>
  <path d="M 88.19 79.01 A 34 34 0 0 1 27.16 51.20" stroke="#3B82F6" stroke-width="18" stroke-linecap="round"/>
  <path d="M 91.95 71.63 L 82.65 73.51 L 86.03 64.21 Z" fill="#1E40AF"/>
  <path d="M 27.16 51.20 L 36.26 48.52 L 33.70 58.08 Z" fill="#3B82F6"/>
  <path d="
    M 40 30
    H 52
    C 69 30, 81 41, 81 60
    C 81 79, 69 90, 52 90
    H 40
    V 74
    H 50
    C 60 74, 66 68, 66 60
    C 66 52, 60 46, 50 46
    H 40
    Z" fill="#FFFFFF"/>
</svg></g>
    <text x="170" y="108" font-family="Poppins, Montserrat, Segoe UI, Arial, sans-serif" font-size="58" font-weight="700" fill="#1E40AF">Dinaria</text>
    <text x="170" y="144" font-family="Poppins, Montserrat, Segoe UI, Arial, sans-serif" font-size="20" font-weight="500" fill="#475569">B02 - Azure Calm</text>
    <text x="170" y="178" font-family="Poppins, Montserrat, Segoe UI, Arial, sans-serif" font-size="18" fill="#64748B">Primary #1E40AF | Accent #3B82F6</text>
  </g>
  <g transform="translate(28 436)">
    <rect width="580" height="250" rx="20" fill="#FFFFFF" stroke="#E2E8F0"/>
    <g transform="translate(24 58)">
<svg width="120" height="120" viewBox="0 0 120 120" xmlns="http://www.w3.org/2000/svg" fill="none">
  
  <path d="M 28.80 49.26 A 33 33 0 1 1 90.60 72.36" stroke="#1D4ED8" stroke-width="19" stroke-linecap="round"/>
  <path d="M 87.99 77.49 A 33 33 0 0 1 27.72 53.14" stroke="#60A5FA" stroke-width="19" stroke-linecap="round"/>
  <path d="M 90.60 72.36 L 81.23 73.92 L 84.94 64.74 Z" fill="#1D4ED8"/>
  <path d="M 27.72 53.14 L 36.67 49.98 L 34.61 59.66 Z" fill="#60A5FA"/>
  <path d="
    M 40 30
    H 52
    C 69 30, 81 41, 81 60
    C 81 79, 69 90, 52 90
    H 40
    V 74
    H 50
    C 60 74, 66 68, 66 60
    C 66 52, 60 46, 50 46
    H 40
    Z" fill="#FFFFFF"/>
</svg></g>
    <text x="170" y="108" font-family="Poppins, Montserrat, Segoe UI, Arial, sans-serif" font-size="58" font-weight="700" fill="#1D4ED8">Dinaria</text>
    <text x="170" y="144" font-family="Poppins, Montserrat, Segoe UI, Arial, sans-serif" font-size="20" font-weight="500" fill="#475569">B03 - Cobalt Core</text>
    <text x="170" y="178" font-family="Poppins, Montserrat, Segoe UI, Arial, sans-serif" font-size="18" fill="#64748B">Primary #1D4ED8 | Accent #60A5FA</text>
  </g>
  <g transform="translate(636 436)">
    <rect width="580" height="250" rx="20" fill="#FFFFFF" stroke="#E2E8F0"/>
    <g transform="translate(24 58)">
<svg width="120" height="120" viewBox="0 0 120 120" xmlns="http://www.w3.org/2000/svg" fill="none">
  <rect x="8" y="8" width="104" height="104" rx="28" fill="#EAF2FF"/>
  <path d="M 27.32 50.63 A 34 34 0 1 1 92.34 70.51" stroke="#1E3A8A" stroke-width="17" stroke-linecap="round"/>
  <path d="M 88.19 79.01 A 34 34 0 0 1 27.66 49.49" stroke="#2563EB" stroke-width="17" stroke-linecap="round"/>
  <path d="M 92.34 70.51 L 83.10 72.71 L 86.16 63.30 Z" fill="#1E3A8A"/>
  <path d="M 27.66 49.49 L 36.90 47.29 L 33.84 56.70 Z" fill="#2563EB"/>
  <path d="
    M 40 30
    H 52
    C 69 30, 81 41, 81 60
    C 81 79, 69 90, 52 90
    H 40
    V 74
    H 50
    C 60 74, 66 68, 66 60
    C 66 52, 60 46, 50 46
    H 40
    Z" fill="#FFFFFF"/>
</svg></g>
    <text x="170" y="108" font-family="Poppins, Montserrat, Segoe UI, Arial, sans-serif" font-size="58" font-weight="700" fill="#1E3A8A">Dinaria</text>
    <text x="170" y="144" font-family="Poppins, Montserrat, Segoe UI, Arial, sans-serif" font-size="20" font-weight="500" fill="#475569">B04 - Navy Pro</text>
    <text x="170" y="178" font-family="Poppins, Montserrat, Segoe UI, Arial, sans-serif" font-size="18" fill="#64748B">Primary #1E3A8A | Accent #2563EB</text>
  </g>
  <g transform="translate(28 714)">
    <rect width="580" height="250" rx="20" fill="#FFFFFF" stroke="#E2E8F0"/>
    <g transform="translate(24 58)">
<svg width="120" height="120" viewBox="0 0 120 120" xmlns="http://www.w3.org/2000/svg" fill="none">
  <circle cx="60" cy="60" r="54" fill="#EAF2FF"/>
  <path d="M 30.09 46.05 A 33 33 0 0 1 91.01 71.29" stroke="#0EA5E9" stroke-width="18" stroke-linecap="round"/>
  <path d="M 87.99 77.49 A 33 33 0 0 1 28.12 51.46" stroke="#2563EB" stroke-width="18" stroke-linecap="round"/>
  <path d="M 91.01 71.29 L 81.71 73.17 L 85.09 63.86 Z" fill="#0EA5E9"/>
  <path d="M 28.12 51.46 L 37.23 48.77 L 34.67 58.34 Z" fill="#2563EB"/>
  <path d="
    M 40 30
    H 52
    C 69 30, 81 41, 81 60
    C 81 79, 69 90, 52 90
    H 40
    V 74
    H 50
    C 60 74, 66 68, 66 60
    C 66 52, 60 46, 50 46
    H 40
    Z" fill="#FFFFFF"/>
</svg></g>
    <text x="170" y="108" font-family="Poppins, Montserrat, Segoe UI, Arial, sans-serif" font-size="58" font-weight="700" fill="#0EA5E9">Dinaria</text>
    <text x="170" y="144" font-family="Poppins, Montserrat, Segoe UI, Arial, sans-serif" font-size="20" font-weight="500" fill="#475569">B05 - Sky Ledger</text>
    <text x="170" y="178" font-family="Poppins, Montserrat, Segoe UI, Arial, sans-serif" font-size="18" fill="#64748B">Primary #0EA5E9 | Accent #2563EB</text>
  </g>
  <g transform="translate(636 714)">
    <rect width="580" height="250" rx="20" fill="#FFFFFF" stroke="#E2E8F0"/>
    <g transform="translate(24 58)">
<svg width="120" height="120" viewBox="0 0 120 120" xmlns="http://www.w3.org/2000/svg" fill="none">
  <rect x="8" y="8" width="104" height="104" rx="28" fill="#EAF2FF"/>
  <path d="M 28.48 47.26 A 34 34 0 0 1 91.52 72.74" stroke="#3730A3" stroke-width="19" stroke-linecap="round"/>
  <path d="M 88.19 79.01 A 34 34 0 0 1 26.74 52.93" stroke="#3B82F6" stroke-width="19" stroke-linecap="round"/>
  <path d="M 91.52 72.74 L 82.16 74.29 L 85.87 65.11 Z" fill="#3730A3"/>
  <path d="M 26.74 52.93 L 35.70 49.77 L 33.64 59.46 Z" fill="#3B82F6"/>
  <path d="
    M 40 30
    H 52
    C 69 30, 81 41, 81 60
    C 81 79, 69 90, 52 90
    H 40
    V 74
    H 50
    C 60 74, 66 68, 66 60
    C 66 52, 60 46, 50 46
    H 40
    Z" fill="#FFFFFF"/>
</svg></g>
    <text x="170" y="108" font-family="Poppins, Montserrat, Segoe UI, Arial, sans-serif" font-size="58" font-weight="700" fill="#3730A3">Dinaria</text>
    <text x="170" y="144" font-family="Poppins, Montserrat, Segoe UI, Arial, sans-serif" font-size="20" font-weight="500" fill="#475569">B06 - Indigo Balance</text>
    <text x="170" y="178" font-family="Poppins, Montserrat, Segoe UI, Arial, sans-serif" font-size="18" fill="#64748B">Primary #3730A3 | Accent #3B82F6</text>
  </g>
  <g transform="translate(28 992)">
    <rect width="580" height="250" rx="20" fill="#FFFFFF" stroke="#E2E8F0"/>
    <g transform="translate(24 58)">
<svg width="120" height="120" viewBox="0 0 120 120" xmlns="http://www.w3.org/2000/svg" fill="none">
  <rect x="8" y="8" width="104" height="104" rx="18" fill="#EAF2FF"/>
  <path d="M 28.80 49.26 A 33 33 0 0 1 91.38 70.20" stroke="#1D4ED8" stroke-width="17" stroke-linecap="round"/>
  <path d="M 87.99 77.49 A 33 33 0 0 1 28.62 49.80" stroke="#1E3A8A" stroke-width="17" stroke-linecap="round"/>
  <path d="M 91.38 70.20 L 82.15 72.40 L 85.21 62.99 Z" fill="#1D4ED8"/>
  <path d="M 28.62 49.80 L 37.85 47.60 L 34.79 57.01 Z" fill="#1E3A8A"/>
  <path d="
    M 40 30
    H 52
    C 69 30, 81 41, 81 60
    C 81 79, 69 90, 52 90
    H 40
    V 74
    H 50
    C 60 74, 66 68, 66 60
    C 66 52, 60 46, 50 46
    H 40
    Z" fill="#FFFFFF"/>
</svg></g>
    <text x="170" y="108" font-family="Poppins, Montserrat, Segoe UI, Arial, sans-serif" font-size="58" font-weight="700" fill="#1D4ED8">Dinaria</text>
    <text x="170" y="144" font-family="Poppins, Montserrat, Segoe UI, Arial, sans-serif" font-size="20" font-weight="500" fill="#475569">B07 - Royal Finance</text>
    <text x="170" y="178" font-family="Poppins, Montserrat, Segoe UI, Arial, sans-serif" font-size="18" fill="#64748B">Primary #1D4ED8 | Accent #1E3A8A</text>
  </g>
  <g transform="translate(636 992)">
    <rect width="580" height="250" rx="20" fill="#FFFFFF" stroke="#E2E8F0"/>
    <g transform="translate(24 58)">
<svg width="120" height="120" viewBox="0 0 120 120" xmlns="http://www.w3.org/2000/svg" fill="none">
  
  <path d="M 27.32 50.63 A 34 34 0 1 1 91.95 71.63" stroke="#2563EB" stroke-width="18" stroke-linecap="round"/>
  <path d="M 88.19 79.01 A 34 34 0 0 1 27.16 51.20" stroke="#0EA5E9" stroke-width="18" stroke-linecap="round"/>
  <path d="M 91.95 71.63 L 82.65 73.51 L 86.03 64.21 Z" fill="#2563EB"/>
  <path d="M 27.16 51.20 L 36.26 48.52 L 33.70 58.08 Z" fill="#0EA5E9"/>
  <path d="
    M 40 30
    H 52
    C 69 30, 81 41, 81 60
    C 81 79, 69 90, 52 90
    H 40
    V 74
    H 50
    C 60 74, 66 68, 66 60
    C 66 52, 60 46, 50 46
    H 40
    Z" fill="#FFFFFF"/>
</svg></g>
    <text x="170" y="108" font-family="Poppins, Montserrat, Segoe UI, Arial, sans-serif" font-size="58" font-weight="700" fill="#2563EB">Dinaria</text>
    <text x="170" y="144" font-family="Poppins, Montserrat, Segoe UI, Arial, sans-serif" font-size="20" font-weight="500" fill="#475569">B08 - Blue Pulse</text>
    <text x="170" y="178" font-family="Poppins, Montserrat, Segoe UI, Arial, sans-serif" font-size="18" fill="#64748B">Primary #2563EB | Accent #0EA5E9</text>
  </g>
  <g transform="translate(28 1270)">
    <rect width="580" height="250" rx="20" fill="#FFFFFF" stroke="#E2E8F0"/>
    <g transform="translate(24 58)">
<svg width="120" height="120" viewBox="0 0 120 120" xmlns="http://www.w3.org/2000/svg" fill="none">
  <circle cx="60" cy="60" r="54" fill="#EAF2FF"/>
  <path d="M 30.09 46.05 A 33 33 0 0 1 90.60 72.36" stroke="#1E40AF" stroke-width="19" stroke-linecap="round"/>
  <path d="M 87.99 77.49 A 33 33 0 0 1 27.72 53.14" stroke="#38BDF8" stroke-width="19" stroke-linecap="round"/>
  <path d="M 90.60 72.36 L 81.23 73.92 L 84.94 64.74 Z" fill="#1E40AF"/>
  <path d="M 27.72 53.14 L 36.67 49.98 L 34.61 59.66 Z" fill="#38BDF8"/>
  <path d="
    M 40 30
    H 52
    C 69 30, 81 41, 81 60
    C 81 79, 69 90, 52 90
    H 40
    V 74
    H 50
    C 60 74, 66 68, 66 60
    C 66 52, 60 46, 50 46
    H 40
    Z" fill="#FFFFFF"/>
</svg></g>
    <text x="170" y="108" font-family="Poppins, Montserrat, Segoe UI, Arial, sans-serif" font-size="58" font-weight="700" fill="#1E40AF">Dinaria</text>
    <text x="170" y="144" font-family="Poppins, Montserrat, Segoe UI, Arial, sans-serif" font-size="20" font-weight="500" fill="#475569">B09 - Deep Horizon</text>
    <text x="170" y="178" font-family="Poppins, Montserrat, Segoe UI, Arial, sans-serif" font-size="18" fill="#64748B">Primary #1E40AF | Accent #38BDF8</text>
  </g>
  <g transform="translate(636 1270)">
    <rect width="580" height="250" rx="20" fill="#FFFFFF" stroke="#E2E8F0"/>
    <g transform="translate(24 58)">
<svg width="120" height="120" viewBox="0 0 120 120" xmlns="http://www.w3.org/2000/svg" fill="none">
  <rect x="8" y="8" width="104" height="104" rx="28" fill="#EAF2FF"/>
  <path d="M 28.48 47.26 A 34 34 0 0 1 92.34 70.51" stroke="#1D4ED8" stroke-width="17" stroke-linecap="round"/>
  <path d="M 88.19 79.01 A 34 34 0 0 1 27.66 49.49" stroke="#22D3EE" stroke-width="17" stroke-linecap="round"/>
  <path d="M 92.34 70.51 L 83.10 72.71 L 86.16 63.30 Z" fill="#1D4ED8"/>
  <path d="M 27.66 49.49 L 36.90 47.29 L 33.84 56.70 Z" fill="#22D3EE"/>
  <path d="
    M 40 30
    H 52
    C 69 30, 81 41, 81 60
    C 81 79, 69 90, 52 90
    H 40
    V 74
    H 50
    C 60 74, 66 68, 66 60
    C 66 52, 60 46, 50 46
    H 40
    Z" fill="#FFFFFF"/>
</svg></g>
    <text x="170" y="108" font-family="Poppins, Montserrat, Segoe UI, Arial, sans-serif" font-size="58" font-weight="700" fill="#1D4ED8">Dinaria</text>
    <text x="170" y="144" font-family="Poppins, Montserrat, Segoe UI, Arial, sans-serif" font-size="20" font-weight="500" fill="#475569">B10 - Trusted Loop</text>
    <text x="170" y="178" font-family="Poppins, Montserrat, Segoe UI, Arial, sans-serif" font-size="18" fill="#64748B">Primary #1D4ED8 | Accent #22D3EE</text>
  </g>
</svg>