<?xml version="1.0" standalone="no"?>
<svg xmlns="http://www.w3.org/2000/svg" version="1.1" width="217" height="217">
	<!-- Created with https://api.qrserver.com (QR Code API, see goQR.me/api for information) -->
	<title>QR Code</title>
	<desc>https://dinariafinanzas.vercel.app/entry.html</desc>
	<rect style="fill:rgb(255, 255, 255);fill-opacity:1" x="0" y="0" width="217" height="217" />
	<g id="elements">
		<path style="fill:rgb(0, 0, 0)" d="M 7,7 l 7,0 0,7 -7,0 z M 14,7 l 7,0 0,7 -7,0 z M 21,7 l 7,0 0,7 -7,0 z M 28,7 l 7,0 0,7 -7,0 z M 35,7 l 7,0 0,7 -7,0 z M 42,7 l 7,0 0,7 -7,0 z M 49,7 l 7,0 0,7 -7,0 z M 70,7 l 7,0 0,7 -7,0 z M 98,7 l 7,0 0,7 -7,0 z M 119,7 l 7,0 0,7 -7,0 z M 140,7 l 7,0 0,7 -7,0 z M 147,7 l 7,0 0,7 -7,0 z M 161,7 l 7,0 0,7 -7,0 z M 168,7 l 7,0 0,7 -7,0 z M 175,7 l 7,0 0,7 -7,0 z M 182,7 l 7,0 0,7 -7,0 z M 189,7 l 7,0 0,7 -7,0 z M 196,7 l 7,0 0,7 -7,0 z M 203,7 l 7,0 0,7 -7,0 z M 7,14 l 7,0 0,7 -7,0 z M 49,14 l 7,0 0,7 -7,0 z M 63,14 l 7,0 0,7 -7,0 z M 70,14 l 7,0 0,7 -7,0 z M 84,14 l 7,0 0,7 -7,0 z M 91,14 l 7,0 0,7 -7,0 z M 98,14 l 7,0 0,7 -7,0 z M 105,14 l 7,0 0,7 -7,0 z M 112,14 l 7,0 0,7 -7,0 z M 119,14 l 7,0 0,7 -7,0 z M 126,14 l 7,0 0,7 -7,0 z M 133,14 l 7,0 0,7 -7,0 z M 147,14 l 7,0 0,7 -7,0 z M 161,14 l 7,0 0,7 -7,0 z M 203,14 l 7,0 0,7 -7,0 z M 7,21 l 7,0 0,7 -7,0 z M 21,21 l 7,0 0,7 -7,0 z M 28,21 l 7,0 0,7 -7,0 z M 35,21 l 7,0 0,7 -7,0 z M 49,21 l 7,0 0,7 -7,0 z M 70,21 l 7,0 0,7 -7,0 z M 77,21 l 7,0 0,7 -7,0 z M 84,21 l 7,0 0,7 -7,0 z M 112,21 l 7,0 0,7 -7,0 z M 119,21 l 7,0 0,7 -7,0 z M 161,21 l 7,0 0,7 -7,0 z M 175,21 l 7,0 0,7 -7,0 z M 182,21 l 7,0 0,7 -7,0 z M 189,21 l 7,0 0,7 -7,0 z M 203,21 l 7,0 0,7 -7,0 z M 7,28 l 7,0 0,7 -7,0 z M 21,28 l 7,0 0,7 -7,0 z M 28,28 l 7,0 0,7 -7,0 z M 35,28 l 7,0 0,7 -7,0 z M 49,28 l 7,0 0,7 -7,0 z M 63,28 l 7,0 0,7 -7,0 z M 70,28 l 7,0 0,7 -7,0 z M 84,28 l 7,0 0,7 -7,0 z M 98,28 l 7,0 0,7 -7,0 z M 105,28 l 7,0 0,7 -7,0 z M 112,28 l 7,0 0,7 -7,0 z M 126,28 l 7,0 0,7 -7,0 z M 133,28 l 7,0 0,7 -7,0 z M 161,28 l 7,0 0,7 -7,0 z M 175,28 l 7,0 0,7 -7,0 z M 182,28 l 7,0 0,7 -7,0 z M 189,28 l 7,0 0,7 -7,0 z M 203,28 l 7,0 0,7 -7,0 z M 7,35 l 7,0 0,7 -7,0 z M 21,35 l 7,0 0,7 -7,0 z M 28,35 l 7,0 0,7 -7,0 z M 35,35 l 7,0 0,7 -7,0 z M 49,35 l 7,0 0,7 -7,0 z M 77,35 l 7,0 0,7 -7,0 z M 91,35 l 7,0 0,7 -7,0 z M 105,35 l 7,0 0,7 -7,0 z M 119,35 l 7,0 0,7 -7,0 z M 126,35 l 7,0 0,7 -7,0 z M 133,35 l 7,0 0,7 -7,0 z M 140,35 l 7,0 0,7 -7,0 z M 147,35 l 7,0 0,7 -7,0 z M 161,35 l 7,0 0,7 -7,0 z M 175,35 l 7,0 0,7 -7,0 z M 182,35 l 7,0 0,7 -7,0 z M 189,35 l 7,0 0,7 -7,0 z M 203,35 l 7,0 0,7 -7,0 z M 7,42 l 7,0 0,7 -7,0 z M 49,42 l 7,0 0,7 -7,0 z M 63,42 l 7,0 0,7 -7,0 z M 77,42 l 7,0 0,7 -7,0 z M 105,42 l 7,0 0,7 -7,0 z M 112,42 l 7,0 0,7 -7,0 z M 119,42 l 7,0 0,7 -7,0 z M 126,42 l 7,0 0,7 -7,0 z M 161,42 l 7,0 0,7 -7,0 z M 203,42 l 7,0 0,7 -7,0 z M 7,49 l 7,0 0,7 -7,0 z M 14,49 l 7,0 0,7 -7,0 z M 21,49 l 7,0 0,7 -7,0 z M 28,49 l 7,0 0,7 -7,0 z M 35,49 l 7,0 0,7 -7,0 z M 42,49 l 7,0 0,7 -7,0 z M 49,49 l 7,0 0,7 -7,0 z M 63,49 l 7,0 0,7 -7,0 z M 77,49 l 7,0 0,7 -7,0 z M 91,49 l 7,0 0,7 -7,0 z M 105,49 l 7,0 0,7 -7,0 z M 119,49 l 7,0 0,7 -7,0 z M 133,49 l 7,0 0,7 -7,0 z M 147,49 l 7,0 0,7 -7,0 z M 161,49 l 7,0 0,7 -7,0 z M 168,49 l 7,0 0,7 -7,0 z M 175,49 l 7,0 0,7 -7,0 z M 182,49 l 7,0 0,7 -7,0 z M 189,49 l 7,0 0,7 -7,0 z M 196,49 l 7,0 0,7 -7,0 z M 203,49 l 7,0 0,7 -7,0 z M 91,56 l 7,0 0,7 -7,0 z M 119,56 l 7,0 0,7 -7,0 z M 133,56 l 7,0 0,7 -7,0 z M 140,56 l 7,0 0,7 -7,0 z M 7,63 l 7,0 0,7 -7,0 z M 14,63 l 7,0 0,7 -7,0 z M 21,63 l 7,0 0,7 -7,0 z M 28,63 l 7,0 0,7 -7,0 z M 35,63 l 7,0 0,7 -7,0 z M 49,63 l 7,0 0,7 -7,0 z M 56,63 l 7,0 0,7 -7,0 z M 63,63 l 7,0 0,7 -7,0 z M 70,63 l 7,0 0,7 -7,0 z M 77,63 l 7,0 0,7 -7,0 z M 91,63 l 7,0 0,7 -7,0 z M 98,63 l 7,0 0,7 -7,0 z M 105,63 l 7,0 0,7 -7,0 z M 126,63 l 7,0 0,7 -7,0 z M 140,63 l 7,0 0,7 -7,0 z M 147,63 l 7,0 0,7 -7,0 z M 154,63 l 7,0 0,7 -7,0 z M 168,63 l 7,0 0,7 -7,0 z M 182,63 l 7,0 0,7 -7,0 z M 196,63 l 7,0 0,7 -7,0 z M 7,70 l 7,0 0,7 -7,0 z M 21,70 l 7,0 0,7 -7,0 z M 56,70 l 7,0 0,7 -7,0 z M 70,70 l 7,0 0,7 -7,0 z M 105,70 l 7,0 0,7 -7,0 z M 140,70 l 7,0 0,7 -7,0 z M 147,70 l 7,0 0,7 -7,0 z M 161,70 l 7,0 0,7 -7,0 z M 168,70 l 7,0 0,7 -7,0 z M 175,70 l 7,0 0,7 -7,0 z M 203,70 l 7,0 0,7 -7,0 z M 7,77 l 7,0 0,7 -7,0 z M 14,77 l 7,0 0,7 -7,0 z M 42,77 l 7,0 0,7 -7,0 z M 49,77 l 7,0 0,7 -7,0 z M 56,77 l 7,0 0,7 -7,0 z M 63,77 l 7,0 0,7 -7,0 z M 70,77 l 7,0 0,7 -7,0 z M 84,77 l 7,0 0,7 -7,0 z M 91,77 l 7,0 0,7 -7,0 z M 98,77 l 7,0 0,7 -7,0 z M 112,77 l 7,0 0,7 -7,0 z M 126,77 l 7,0 0,7 -7,0 z M 154,77 l 7,0 0,7 -7,0 z M 168,77 l 7,0 0,7 -7,0 z M 175,77 l 7,0 0,7 -7,0 z M 7,84 l 7,0 0,7 -7,0 z M 14,84 l 7,0 0,7 -7,0 z M 28,84 l 7,0 0,7 -7,0 z M 42,84 l 7,0 0,7 -7,0 z M 63,84 l 7,0 0,7 -7,0 z M 70,84 l 7,0 0,7 -7,0 z M 77,84 l 7,0 0,7 -7,0 z M 84,84 l 7,0 0,7 -7,0 z M 112,84 l 7,0 0,7 -7,0 z M 133,84 l 7,0 0,7 -7,0 z M 140,84 l 7,0 0,7 -7,0 z M 147,84 l 7,0 0,7 -7,0 z M 154,84 l 7,0 0,7 -7,0 z M 161,84 l 7,0 0,7 -7,0 z M 175,84 l 7,0 0,7 -7,0 z M 182,84 l 7,0 0,7 -7,0 z M 196,84 l 7,0 0,7 -7,0 z M 7,91 l 7,0 0,7 -7,0 z M 21,91 l 7,0 0,7 -7,0 z M 35,91 l 7,0 0,7 -7,0 z M 42,91 l 7,0 0,7 -7,0 z M 49,91 l 7,0 0,7 -7,0 z M 70,91 l 7,0 0,7 -7,0 z M 84,91 l 7,0 0,7 -7,0 z M 98,91 l 7,0 0,7 -7,0 z M 105,91 l 7,0 0,7 -7,0 z M 112,91 l 7,0 0,7 -7,0 z M 119,91 l 7,0 0,7 -7,0 z M 126,91 l 7,0 0,7 -7,0 z M 140,91 l 7,0 0,7 -7,0 z M 182,91 l 7,0 0,7 -7,0 z M 189,91 l 7,0 0,7 -7,0 z M 14,98 l 7,0 0,7 -7,0 z M 28,98 l 7,0 0,7 -7,0 z M 56,98 l 7,0 0,7 -7,0 z M 63,98 l 7,0 0,7 -7,0 z M 77,98 l 7,0 0,7 -7,0 z M 91,98 l 7,0 0,7 -7,0 z M 98,98 l 7,0 0,7 -7,0 z M 105,98 l 7,0 0,7 -7,0 z M 119,98 l 7,0 0,7 -7,0 z M 133,98 l 7,0 0,7 -7,0 z M 140,98 l 7,0 0,7 -7,0 z M 147,98 l 7,0 0,7 -7,0 z M 154,98 l 7,0 0,7 -7,0 z M 161,98 l 7,0 0,7 -7,0 z M 168,98 l 7,0 0,7 -7,0 z M 175,98 l 7,0 0,7 -7,0 z M 203,98 l 7,0 0,7 -7,0 z M 21,105 l 7,0 0,7 -7,0 z M 35,105 l 7,0 0,7 -7,0 z M 42,105 l 7,0 0,7 -7,0 z M 49,105 l 7,0 0,7 -7,0 z M 63,105 l 7,0 0,7 -7,0 z M 77,105 l 7,0 0,7 -7,0 z M 112,105 l 7,0 0,7 -7,0 z M 147,105 l 7,0 0,7 -7,0 z M 154,105 l 7,0 0,7 -7,0 z M 161,105 l 7,0 0,7 -7,0 z M 182,105 l 7,0 0,7 -7,0 z M 189,105 l 7,0 0,7 -7,0 z M 7,112 l 7,0 0,7 -7,0 z M 21,112 l 7,0 0,7 -7,0 z M 28,112 l 7,0 0,7 -7,0 z M 35,112 l 7,0 0,7 -7,0 z M 63,112 l 7,0 0,7 -7,0 z M 70,112 l 7,0 0,7 -7,0 z M 91,112 l 7,0 0,7 -7,0 z M 105,112 l 7,0 0,7 -7,0 z M 112,112 l 7,0 0,7 -7,0 z M 168,112 l 7,0 0,7 -7,0 z M 196,112 l 7,0 0,7 -7,0 z M 14,119 l 7,0 0,7 -7,0 z M 49,119 l 7,0 0,7 -7,0 z M 56,119 l 7,0 0,7 -7,0 z M 70,119 l 7,0 0,7 -7,0 z M 91,119 l 7,0 0,7 -7,0 z M 98,119 l 7,0 0,7 -7,0 z M 112,119 l 7,0 0,7 -7,0 z M 119,119 l 7,0 0,7 -7,0 z M 126,119 l 7,0 0,7 -7,0 z M 182,119 l 7,0 0,7 -7,0 z M 189,119 l 7,0 0,7 -7,0 z M 7,126 l 7,0 0,7 -7,0 z M 14,126 l 7,0 0,7 -7,0 z M 21,126 l 7,0 0,7 -7,0 z M 35,126 l 7,0 0,7 -7,0 z M 42,126 l 7,0 0,7 -7,0 z M 56,126 l 7,0 0,7 -7,0 z M 70,126 l 7,0 0,7 -7,0 z M 98,126 l 7,0 0,7 -7,0 z M 119,126 l 7,0 0,7 -7,0 z M 140,126 l 7,0 0,7 -7,0 z M 147,126 l 7,0 0,7 -7,0 z M 154,126 l 7,0 0,7 -7,0 z M 161,126 l 7,0 0,7 -7,0 z M 168,126 l 7,0 0,7 -7,0 z M 175,126 l 7,0 0,7 -7,0 z M 189,126 l 7,0 0,7 -7,0 z M 203,126 l 7,0 0,7 -7,0 z M 7,133 l 7,0 0,7 -7,0 z M 21,133 l 7,0 0,7 -7,0 z M 28,133 l 7,0 0,7 -7,0 z M 49,133 l 7,0 0,7 -7,0 z M 56,133 l 7,0 0,7 -7,0 z M 70,133 l 7,0 0,7 -7,0 z M 77,133 l 7,0 0,7 -7,0 z M 84,133 l 7,0 0,7 -7,0 z M 91,133 l 7,0 0,7 -7,0 z M 98,133 l 7,0 0,7 -7,0 z M 105,133 l 7,0 0,7 -7,0 z M 112,133 l 7,0 0,7 -7,0 z M 119,133 l 7,0 0,7 -7,0 z M 126,133 l 7,0 0,7 -7,0 z M 133,133 l 7,0 0,7 -7,0 z M 154,133 l 7,0 0,7 -7,0 z M 168,133 l 7,0 0,7 -7,0 z M 175,133 l 7,0 0,7 -7,0 z M 189,133 l 7,0 0,7 -7,0 z M 7,140 l 7,0 0,7 -7,0 z M 21,140 l 7,0 0,7 -7,0 z M 28,140 l 7,0 0,7 -7,0 z M 35,140 l 7,0 0,7 -7,0 z M 42,140 l 7,0 0,7 -7,0 z M 56,140 l 7,0 0,7 -7,0 z M 77,140 l 7,0 0,7 -7,0 z M 84,140 l 7,0 0,7 -7,0 z M 112,140 l 7,0 0,7 -7,0 z M 133,140 l 7,0 0,7 -7,0 z M 140,140 l 7,0 0,7 -7,0 z M 147,140 l 7,0 0,7 -7,0 z M 196,140 l 7,0 0,7 -7,0 z M 7,147 l 7,0 0,7 -7,0 z M 21,147 l 7,0 0,7 -7,0 z M 28,147 l 7,0 0,7 -7,0 z M 35,147 l 7,0 0,7 -7,0 z M 42,147 l 7,0 0,7 -7,0 z M 49,147 l 7,0 0,7 -7,0 z M 56,147 l 7,0 0,7 -7,0 z M 63,147 l 7,0 0,7 -7,0 z M 84,147 l 7,0 0,7 -7,0 z M 91,147 l 7,0 0,7 -7,0 z M 98,147 l 7,0 0,7 -7,0 z M 105,147 l 7,0 0,7 -7,0 z M 112,147 l 7,0 0,7 -7,0 z M 126,147 l 7,0 0,7 -7,0 z M 140,147 l 7,0 0,7 -7,0 z M 147,147 l 7,0 0,7 -7,0 z M 154,147 l 7,0 0,7 -7,0 z M 161,147 l 7,0 0,7 -7,0 z M 168,147 l 7,0 0,7 -7,0 z M 175,147 l 7,0 0,7 -7,0 z M 189,147 l 7,0 0,7 -7,0 z M 196,147 l 7,0 0,7 -7,0 z M 203,147 l 7,0 0,7 -7,0 z M 63,154 l 7,0 0,7 -7,0 z M 91,154 l 7,0 0,7 -7,0 z M 98,154 l 7,0 0,7 -7,0 z M 119,154 l 7,0 0,7 -7,0 z M 133,154 l 7,0 0,7 -7,0 z M 147,154 l 7,0 0,7 -7,0 z M 175,154 l 7,0 0,7 -7,0 z M 182,154 l 7,0 0,7 -7,0 z M 189,154 l 7,0 0,7 -7,0 z M 196,154 l 7,0 0,7 -7,0 z M 203,154 l 7,0 0,7 -7,0 z M 7,161 l 7,0 0,7 -7,0 z M 14,161 l 7,0 0,7 -7,0 z M 21,161 l 7,0 0,7 -7,0 z M 28,161 l 7,0 0,7 -7,0 z M 35,161 l 7,0 0,7 -7,0 z M 42,161 l 7,0 0,7 -7,0 z M 49,161 l 7,0 0,7 -7,0 z M 63,161 l 7,0 0,7 -7,0 z M 91,161 l 7,0 0,7 -7,0 z M 112,161 l 7,0 0,7 -7,0 z M 126,161 l 7,0 0,7 -7,0 z M 133,161 l 7,0 0,7 -7,0 z M 140,161 l 7,0 0,7 -7,0 z M 147,161 l 7,0 0,7 -7,0 z M 161,161 l 7,0 0,7 -7,0 z M 175,161 l 7,0 0,7 -7,0 z M 182,161 l 7,0 0,7 -7,0 z M 189,161 l 7,0 0,7 -7,0 z M 7,168 l 7,0 0,7 -7,0 z M 49,168 l 7,0 0,7 -7,0 z M 70,168 l 7,0 0,7 -7,0 z M 77,168 l 7,0 0,7 -7,0 z M 119,168 l 7,0 0,7 -7,0 z M 140,168 l 7,0 0,7 -7,0 z M 147,168 l 7,0 0,7 -7,0 z M 175,168 l 7,0 0,7 -7,0 z M 7,175 l 7,0 0,7 -7,0 z M 21,175 l 7,0 0,7 -7,0 z M 28,175 l 7,0 0,7 -7,0 z M 35,175 l 7,0 0,7 -7,0 z M 49,175 l 7,0 0,7 -7,0 z M 63,175 l 7,0 0,7 -7,0 z M 70,175 l 7,0 0,7 -7,0 z M 77,175 l 7,0 0,7 -7,0 z M 84,175 l 7,0 0,7 -7,0 z M 91,175 l 7,0 0,7 -7,0 z M 98,175 l 7,0 0,7 -7,0 z M 105,175 l 7,0 0,7 -7,0 z M 126,175 l 7,0 0,7 -7,0 z M 147,175 l 7,0 0,7 -7,0 z M 154,175 l 7,0 0,7 -7,0 z M 161,175 l 7,0 0,7 -7,0 z M 168,175 l 7,0 0,7 -7,0 z M 175,175 l 7,0 0,7 -7,0 z M 189,175 l 7,0 0,7 -7,0 z M 203,175 l 7,0 0,7 -7,0 z M 7,182 l 7,0 0,7 -7,0 z M 21,182 l 7,0 0,7 -7,0 z M 28,182 l 7,0 0,7 -7,0 z M 35,182 l 7,0 0,7 -7,0 z M 49,182 l 7,0 0,7 -7,0 z M 63,182 l 7,0 0,7 -7,0 z M 70,182 l 7,0 0,7 -7,0 z M 84,182 l 7,0 0,7 -7,0 z M 105,182 l 7,0 0,7 -7,0 z M 133,182 l 7,0 0,7 -7,0 z M 140,182 l 7,0 0,7 -7,0 z M 182,182 l 7,0 0,7 -7,0 z M 189,182 l 7,0 0,7 -7,0 z M 196,182 l 7,0 0,7 -7,0 z M 203,182 l 7,0 0,7 -7,0 z M 7,189 l 7,0 0,7 -7,0 z M 21,189 l 7,0 0,7 -7,0 z M 28,189 l 7,0 0,7 -7,0 z M 35,189 l 7,0 0,7 -7,0 z M 49,189 l 7,0 0,7 -7,0 z M 63,189 l 7,0 0,7 -7,0 z M 105,189 l 7,0 0,7 -7,0 z M 112,189 l 7,0 0,7 -7,0 z M 147,189 l 7,0 0,7 -7,0 z M 154,189 l 7,0 0,7 -7,0 z M 161,189 l 7,0 0,7 -7,0 z M 168,189 l 7,0 0,7 -7,0 z M 175,189 l 7,0 0,7 -7,0 z M 182,189 l 7,0 0,7 -7,0 z M 189,189 l 7,0 0,7 -7,0 z M 196,189 l 7,0 0,7 -7,0 z M 7,196 l 7,0 0,7 -7,0 z M 49,196 l 7,0 0,7 -7,0 z M 63,196 l 7,0 0,7 -7,0 z M 77,196 l 7,0 0,7 -7,0 z M 112,196 l 7,0 0,7 -7,0 z M 119,196 l 7,0 0,7 -7,0 z M 147,196 l 7,0 0,7 -7,0 z M 175,196 l 7,0 0,7 -7,0 z M 182,196 l 7,0 0,7 -7,0 z M 196,196 l 7,0 0,7 -7,0 z M 7,203 l 7,0 0,7 -7,0 z M 14,203 l 7,0 0,7 -7,0 z M 21,203 l 7,0 0,7 -7,0 z M 28,203 l 7,0 0,7 -7,0 z M 35,203 l 7,0 0,7 -7,0 z M 42,203 l 7,0 0,7 -7,0 z M 49,203 l 7,0 0,7 -7,0 z M 63,203 l 7,0 0,7 -7,0 z M 77,203 l 7,0 0,7 -7,0 z M 84,203 l 7,0 0,7 -7,0 z M 91,203 l 7,0 0,7 -7,0 z M 98,203 l 7,0 0,7 -7,0 z M 105,203 l 7,0 0,7 -7,0 z M 126,203 l 7,0 0,7 -7,0 z M 140,203 l 7,0 0,7 -7,0 z M 154,203 l 7,0 0,7 -7,0 z M 161,203 l 7,0 0,7 -7,0 z M 168,203 l 7,0 0,7 -7,0 z M 175,203 l 7,0 0,7 -7,0 z M 189,203 l 7,0 0,7 -7,0 z " />
	</g>
</svg>
