<svg width="615" height="164" viewBox="0 0 615 164" fill="none" xmlns="http://www.w3.org/2000/svg">
<path d="M132.71 56.5475C136.236 64.3385 138.07 72.9617 138.041 81.7125V81.736C138.082 96.4264 132.857 110.466 123.628 120.781L122.083 122.43C114.279 130.457 105.205 135.231 94.6436 136.61C91.081 137.075 87.6412 137.003 83.6152 137.002L30.6865 136.992L30.7002 140.925C30.7127 143.966 30.7753 145.98 30.3047 147.562C30.107 148.225 29.8566 148.628 29.5801 148.902C29.3084 149.17 28.8037 149.52 27.7871 149.779C27.4711 149.859 26.6561 149.829 24.9316 148.74C24.1441 148.242 23.3327 147.628 22.4619 146.942C21.6569 146.308 20.6803 145.506 19.8301 144.878L6.42676 134.985L6.42285 134.98L3.70898 133.03C2.91941 132.45 2.23241 131.897 1.60156 131.252C0.537978 130.163 0.0189152 129.152 0.00488281 127.795V127.661L0.00976562 127.204C0.0377168 126.689 0.136721 126.024 0.329102 125.363C0.451989 124.941 0.588322 124.593 0.719727 124.342C0.845524 124.103 0.918658 124.04 0.888672 124.07L3.0752 122.169C5.52786 120.13 8.63935 117.77 11.4619 115.698C13.3181 114.335 15.0136 113.124 16.2393 112.255C16.8501 111.823 17.3485 111.474 17.6895 111.236C17.8585 111.118 17.9917 111.025 18.0801 110.964C18.1233 110.933 18.1578 110.907 18.1797 110.892C18.1893 110.886 18.2041 110.878 18.2041 110.878L18.2139 110.873L18.3945 110.74L18.4043 110.73C18.4136 110.723 18.4302 110.71 18.4473 110.697C18.4842 110.668 18.5401 110.622 18.6094 110.568C18.7521 110.457 18.9632 110.299 19.2197 110.101C19.7373 109.702 20.4557 109.146 21.2598 108.537C22.8914 107.3 24.8059 105.881 26.1191 104.99C26.9422 104.433 28.1696 104.392 29.2754 105.266L29.7373 105.7C30.1456 106.156 30.48 106.898 30.6387 108.241C30.809 109.687 30.7275 111.159 30.71 113.1L30.6768 117.019L34.5908 117.052C38.3675 117.086 78.9967 117.093 82.7471 117.072L82.7422 117.067C90.7956 117.047 98.4138 117.388 106.772 111.092C120.36 100.857 124.367 80.658 116.857 65.2106C120.951 62.0667 125.154 59.083 129.454 55.9752C130.243 55.405 130.975 54.8568 131.666 54.3688L132.71 56.5475ZM0.888672 124.07L0.876953 124.081C0.881576 124.076 0.885875 124.073 0.888672 124.07ZM102.215 14.194C102.328 14.2163 102.542 14.2735 102.873 14.4088C103.404 14.6262 104.043 14.9701 104.775 15.4332C106.323 16.412 107.664 17.4936 109.09 18.5231C112.888 21.2722 116.662 24.067 120.404 26.9098L120.424 26.9293C123.204 29.0105 125.638 30.5568 127.785 32.4362C128.835 33.4616 129.528 34.8975 129.592 36.2692C129.682 38.2225 129.128 39.2965 128.295 40.236C127.188 41.4832 125.792 42.3334 123.532 44.0074L114.178 50.8883L114.168 50.8922L107.259 55.9987L104.537 57.9586C103.786 58.4596 103.154 58.8085 102.534 59.0074C102.063 59.1585 101.775 59.1514 101.552 59.0983C101.317 59.0421 100.832 58.8557 100.098 58.149C99.7618 57.8252 99.3851 57.1497 99.1777 55.6744C98.9636 54.1481 99.0136 52.601 98.9727 50.6403L98.8916 46.7975L95.0439 46.8063H93.208C92.0361 46.8088 90.3559 46.8166 88.3398 46.8209C84.3079 46.8295 78.915 46.8378 73.4736 46.8492C62.5856 46.8721 51.5071 46.8973 50.7168 46.8971C48.0881 46.9007 45.4588 46.8941 42.8301 46.8824L34.9443 46.8258H34.9062C32.8731 46.8254 30.6185 46.8994 28.3926 47.5885C26.0447 48.3155 23.9531 49.6456 22.0234 51.7936C20.0852 53.9429 18.748 56.6013 18.1133 59.4606L18.1084 59.4889C17.7296 61.2561 17.6366 63.9125 17.6084 66.1598C17.5794 68.4706 17.6193 71.0066 17.6172 72.3864L17.6221 92.1637L17.627 92.2018C17.635 93.0291 17.6326 93.7918 17.627 94.5387C11.95 98.8692 6.0494 103.074 0.195312 107.392C0.157746 107.326 0.134159 107.276 0.128906 107.245C-0.0501876 106.192 0.0313969 104.444 0.0234375 102.458L0 93.9615V65.0631C0.00183381 54.0278 2.94885 45.0722 9.84082 37.4615L9.8457 37.4518C15.2207 31.4917 22.2462 27.8827 29.6611 27.1432H29.6758C33.1073 26.7911 37.2659 26.9384 41.2471 26.943L99.0293 26.9342L98.9873 22.9713C98.9507 19.7572 99.0015 17.5615 99.5684 16.0485C99.8053 15.4169 100.084 15.0705 100.379 14.8424C100.66 14.6256 101.189 14.3441 102.215 14.194Z" fill="#3C499D"/>
<path d="M177.357 127C174.355 127 172.035 126.227 170.397 124.68C168.851 123.043 168.078 120.723 168.078 117.721V40.0771C168.078 37.0751 168.851 34.8008 170.397 33.2543C172.035 31.6168 174.355 30.7981 177.357 30.7981H203.829C219.931 30.7981 232.349 34.9373 241.082 43.2156C249.906 51.494 254.318 63.3657 254.318 78.8308C254.318 86.5634 253.181 93.4317 250.907 99.4358C248.724 105.349 245.449 110.352 241.082 114.446C236.806 118.54 231.53 121.678 225.253 123.861C219.067 125.954 211.926 127 203.829 127H177.357ZM185.544 112.536H202.738C208.378 112.536 213.245 111.853 217.339 110.489C221.523 109.033 224.98 106.941 227.709 104.212C230.529 101.392 232.622 97.8893 233.986 93.7046C235.351 89.4289 236.033 84.471 236.033 78.8308C236.033 67.5504 233.258 59.1356 227.709 53.5863C222.16 48.0371 213.836 45.2625 202.738 45.2625H185.544V112.536ZM278.842 127.955C276.113 127.955 274.021 127.136 272.565 125.499C271.11 123.861 270.382 121.587 270.382 118.676V68.5966C270.382 65.5945 271.11 63.3202 272.565 61.7737C274.021 60.1363 276.113 59.3175 278.842 59.3175C281.571 59.3175 283.664 60.1363 285.119 61.7737C286.666 63.3202 287.439 65.5945 287.439 68.5966V118.676C287.439 121.587 286.711 123.861 285.256 125.499C283.8 127.136 281.662 127.955 278.842 127.955ZM278.842 46.627C275.658 46.627 273.156 45.8538 271.337 44.3073C269.609 42.6698 268.744 40.441 268.744 37.6209C268.744 34.7098 269.609 32.481 271.337 30.9345C273.156 29.388 275.658 28.6148 278.842 28.6148C282.117 28.6148 284.619 29.388 286.347 30.9345C288.076 32.481 288.94 34.7098 288.94 37.6209C288.94 40.441 288.076 42.6698 286.347 44.3073C284.619 45.8538 282.117 46.627 278.842 46.627ZM313.623 128.092C310.893 128.092 308.801 127.364 307.346 125.908C305.89 124.362 305.162 122.179 305.162 119.358V67.7778C305.162 64.9577 305.89 62.8199 307.346 61.3644C308.801 59.9088 310.848 59.1811 313.486 59.1811C316.124 59.1811 318.171 59.9088 319.627 61.3644C321.082 62.8199 321.81 64.9577 321.81 67.7778V77.0569L320.309 73.6455C322.31 68.824 325.403 65.1851 329.588 62.7289C333.864 60.1817 338.685 58.9081 344.052 58.9081C349.42 58.9081 353.832 59.9088 357.289 61.9102C360.746 63.9116 363.338 66.9591 365.067 71.0528C366.795 75.0555 367.659 80.1499 367.659 86.3359V119.358C367.659 122.179 366.932 124.362 365.476 125.908C364.021 127.364 361.928 128.092 359.199 128.092C356.47 128.092 354.332 127.364 352.786 125.908C351.33 124.362 350.602 122.179 350.602 119.358V87.1547C350.602 81.9693 349.602 78.194 347.6 75.8288C345.69 73.4635 342.688 72.2809 338.594 72.2809C333.591 72.2809 329.588 73.8729 326.586 77.0569C323.675 80.1499 322.219 84.2891 322.219 89.4744V119.358C322.219 125.181 319.354 128.092 313.623 128.092ZM406.954 128.365C402.132 128.365 397.811 127.455 393.99 125.635C390.26 123.725 387.304 121.178 385.121 117.994C383.028 114.81 381.982 111.217 381.982 107.214C381.982 102.301 383.256 98.4351 385.803 95.615C388.35 92.7039 392.489 90.6116 398.22 89.338C403.952 88.0644 411.639 87.4276 421.282 87.4276H428.104V97.2525H421.418C415.778 97.2525 411.275 97.5254 407.909 98.0712C404.543 98.617 402.132 99.5722 400.677 100.937C399.312 102.21 398.63 104.03 398.63 106.395C398.63 109.397 399.676 111.853 401.768 113.764C403.861 115.674 406.772 116.629 410.501 116.629C413.503 116.629 416.142 115.947 418.416 114.582C420.781 113.127 422.646 111.171 424.011 108.715C425.375 106.259 426.057 103.438 426.057 100.255V84.562C426.057 80.0134 425.057 76.7385 423.055 74.7371C421.054 72.7357 417.688 71.7351 412.958 71.7351C410.319 71.7351 407.454 72.0535 404.361 72.6903C401.359 73.3271 398.175 74.4187 394.809 75.9652C393.08 76.784 391.534 77.0114 390.169 76.6475C388.896 76.2836 387.895 75.5559 387.167 74.4642C386.44 73.2816 386.076 72.008 386.076 70.6434C386.076 69.2788 386.44 67.9598 387.167 66.6862C387.895 65.3216 389.123 64.3209 390.852 63.6841C395.036 61.9557 399.039 60.7276 402.86 59.9998C406.772 59.272 410.319 58.9081 413.503 58.9081C420.053 58.9081 425.421 59.9088 429.605 61.9102C433.881 63.9116 437.065 66.9591 439.157 71.0528C441.25 75.0555 442.296 80.2409 442.296 86.6088V119.358C442.296 122.179 441.614 124.362 440.249 125.908C438.884 127.364 436.929 128.092 434.381 128.092C431.834 128.092 429.833 127.364 428.377 125.908C427.013 124.362 426.33 122.179 426.33 119.358V112.809H427.422C426.785 115.992 425.512 118.767 423.601 121.132C421.782 123.407 419.462 125.181 416.642 126.454C413.822 127.728 410.592 128.365 406.954 128.365ZM468.342 128.092C465.522 128.092 463.339 127.364 461.792 125.908C460.337 124.362 459.609 122.179 459.609 119.358V67.7778C459.609 64.9577 460.337 62.8199 461.792 61.3644C463.248 59.9088 465.294 59.1811 467.933 59.1811C470.571 59.1811 472.618 59.9088 474.073 61.3644C475.529 62.8199 476.256 64.9577 476.256 67.7778V76.3746H474.892C476.165 70.9163 478.667 66.7771 482.397 63.957C486.127 61.1369 491.085 59.454 497.271 58.9081C499.181 58.7262 500.682 59.2265 501.774 60.4092C502.956 61.5008 503.639 63.2293 503.821 65.5945C504.003 67.8688 503.457 69.7337 502.183 71.1892C501.001 72.5538 499.181 73.3725 496.725 73.6455L493.723 73.9184C488.174 74.4642 483.989 76.1927 481.169 79.1037C478.349 81.9238 476.939 85.9266 476.939 91.1119V119.358C476.939 122.179 476.211 124.362 474.755 125.908C473.3 127.364 471.162 128.092 468.342 128.092ZM521.506 127.955C518.777 127.955 516.684 127.136 515.229 125.499C513.773 123.861 513.045 121.587 513.045 118.676V68.5966C513.045 65.5945 513.773 63.3202 515.229 61.7737C516.684 60.1363 518.777 59.3175 521.506 59.3175C524.235 59.3175 526.327 60.1363 527.783 61.7737C529.329 63.3202 530.102 65.5945 530.102 68.5966V118.676C530.102 121.587 529.375 123.861 527.919 125.499C526.464 127.136 524.326 127.955 521.506 127.955ZM521.506 46.627C518.322 46.627 515.82 45.8538 514.001 44.3073C512.272 42.6698 511.408 40.441 511.408 37.6209C511.408 34.7098 512.272 32.481 514.001 30.9345C515.82 29.388 518.322 28.6148 521.506 28.6148C524.781 28.6148 527.282 29.388 529.011 30.9345C530.739 32.481 531.603 34.7098 531.603 37.6209C531.603 40.441 530.739 42.6698 529.011 44.3073C527.282 45.8538 524.781 46.627 521.506 46.627ZM569.795 128.365C564.974 128.365 560.653 127.455 556.832 125.635C553.102 123.725 550.146 121.178 547.962 117.994C545.87 114.81 544.824 111.217 544.824 107.214C544.824 102.301 546.097 98.4351 548.645 95.615C551.192 92.7039 555.331 90.6116 561.062 89.338C566.793 88.0644 574.48 87.4276 584.123 87.4276H590.946V97.2525H584.26C578.62 97.2525 574.116 97.5254 570.751 98.0712C567.385 98.617 564.974 99.5722 563.518 100.937C562.154 102.21 561.471 104.03 561.471 106.395C561.471 109.397 562.518 111.853 564.61 113.764C566.702 115.674 569.613 116.629 573.343 116.629C576.345 116.629 578.983 115.947 581.258 114.582C583.623 113.127 585.488 111.171 586.852 108.715C588.217 106.259 588.899 103.438 588.899 100.255V84.562C588.899 80.0134 587.899 76.7385 585.897 74.7371C583.896 72.7357 580.53 71.7351 575.799 71.7351C573.161 71.7351 570.296 72.0535 567.203 72.6903C564.201 73.3271 561.017 74.4187 557.651 75.9652C555.922 76.784 554.376 77.0114 553.011 76.6475C551.738 76.2836 550.737 75.5559 550.009 74.4642C549.281 73.2816 548.917 72.008 548.917 70.6434C548.917 69.2788 549.281 67.9598 550.009 66.6862C550.737 65.3216 551.965 64.3209 553.693 63.6841C557.878 61.9557 561.881 60.7276 565.702 59.9998C569.613 59.272 573.161 58.9081 576.345 58.9081C582.895 58.9081 588.262 59.9088 592.447 61.9102C596.723 63.9116 599.907 66.9591 601.999 71.0528C604.091 75.0555 605.138 80.2409 605.138 86.6088V119.358C605.138 122.179 604.455 124.362 603.091 125.908C601.726 127.364 599.77 128.092 597.223 128.092C594.676 128.092 592.675 127.364 591.219 125.908C589.854 124.362 589.172 122.179 589.172 119.358V112.809H590.264C589.627 115.992 588.353 118.767 586.443 121.132C584.624 123.407 582.304 125.181 579.484 126.454C576.664 127.728 573.434 128.365 569.795 128.365Z" fill="#3C499D"/>
</svg>
